<svg width="18" height="17" viewBox="0 0 18 17" fill="none" xmlns="http://www.w3.org/2000/svg">
<path d="M9.14595 0.126418C4.54978 0.143071 0.827885 3.88162 0.844538 8.47779C0.861191 13.074 4.59974 16.7958 9.19591 16.7792C13.7921 16.7625 17.514 13.024 17.4973 8.42783C17.4807 3.83166 13.7421 0.118091 9.14595 0.126418ZM11.0527 8.53607C11.7021 8.76088 12.5764 9.24381 12.5764 10.7342C12.5764 12.0165 11.5689 13.049 10.3366 13.049H9.79541V13.5319C9.79541 13.8733 9.51231 14.1564 9.17093 14.1564C8.82955 14.1564 8.54645 13.8733 8.54645 13.5319V13.049H8.2467C6.88117 13.049 5.77376 11.8999 5.77376 10.4844C5.77376 10.1431 6.05686 9.85997 6.39824 9.85997C6.73962 9.85997 7.02272 10.1431 7.02272 10.4844C7.02272 11.2088 7.57226 11.8 8.2467 11.8H8.54645V8.98569L7.28916 8.53607C6.6397 8.31126 5.76543 7.82833 5.76543 6.3379C5.76543 5.05564 6.77293 4.02317 8.00523 4.02317H8.54645V3.54024C8.54645 3.19885 8.82955 2.91576 9.17093 2.91576C9.51231 2.91576 9.79541 3.19885 9.79541 3.54024V4.02317H10.0952C11.4607 4.02317 12.5681 5.17221 12.5681 6.5877C12.5681 6.92908 12.285 7.21217 11.9436 7.21217C11.6022 7.21217 11.3191 6.92908 11.3191 6.5877C11.3191 5.8633 10.7696 5.27213 10.0952 5.27213H9.79541V8.08645L11.0527 8.53607Z" fill="#1FCB4F"/>
</svg>
